<svg xmlns="http://www.w3.org/2000/svg" viewBox="0 0 64 64">
  <defs>
    <linearGradient id="g" x1="0" y1="0" x2="1" y2="1">
      <stop offset="0%" stop-color="#60a5fa"/>
      <stop offset="100%" stop-color="#2563eb"/>
    </linearGradient>
  </defs>
  <rect width="64" height="64" rx="12" fill="url(#g)"/>
  <g fill="#fff">
    <path d="M12 40h40a2 2 0 0 1 2 2v4a2 2 0 0 1-2 2H12a2 2 0 0 1-2-2v-4a2 2 0 0 1 2-2z"/>
    <path d="M32 18c7.18 0 13 5.82 13 13H19c0-7.18 5.82-13 13-13zm0-4a2 2 0 1 1 0 4 2 2 0 0 1 0-4z"/>
  </g>
</svg>

